HIERARCHY
ROOT hip
{
	OFFSET 0.000000 0.000000 0.000000 
	CHANNELS 6 Xposition Yposition Zposition Xrotation Zrotation Yrotation
	JOINT abdomen
	{
		OFFSET 0.000000 3.402643 0.000000 
		CHANNELS 3 Xrotation Zrotation Yrotation
		JOINT chest
		{
			OFFSET 0.000000 8.438565 -0.680529 
			CHANNELS 3 Xrotation Zrotation Yrotation
			JOINT neck
			{
				OFFSET 0.000000 10.207942 -0.272212 
				CHANNELS 3 Xrotation Zrotation Yrotation
				JOINT head
				{
					OFFSET 0.000000 3.130431 0.000000 
					CHANNELS 3 Xrotation Zrotation Yrotation
					End Site
					{
						OFFSET 0.000000 3.130435 0.000000 
					}
				}
			}
			JOINT lCollar
			{
				OFFSET 3.470700 6.669187 -0.816635 
				CHANNELS 3 Yrotation Zrotation Xrotation
				JOINT lShldr
				{
					OFFSET 3.198488 0.000000 0.000000 
					CHANNELS 3 Zrotation Yrotation Xrotation
					JOINT lForeArm
					{
						OFFSET 10.139888 0.000000 0.000000 
						CHANNELS 3 Yrotation Zrotation Xrotation
						JOINT lHand
						{
							OFFSET 8.370511 0.000000 0.000000 
							CHANNELS 3 Zrotation Yrotation Xrotation
							End Site
							{
								OFFSET 4.083176 0.000000 0.000000 
							}
						}
					}
				}
			}
			JOINT rCollar
			{
				OFFSET -3.470700 6.669187 -0.816635 
				CHANNELS 3 Yrotation Zrotation Xrotation
				JOINT rShldr
				{
					OFFSET -3.198488 0.000000 0.000000 
					CHANNELS 3 Zrotation Yrotation Xrotation
					JOINT rForeArm
					{
						OFFSET -10.139888 0.000000 0.000000 
						CHANNELS 3 Yrotation Zrotation Xrotation
						JOINT rHand
						{
							OFFSET -8.370511 0.000000 0.000000 
							CHANNELS 3 Zrotation Yrotation Xrotation
							End Site
							{
								OFFSET -4.083176 0.000000 0.000000 
							}
						}
					}
				}
			}
		}
	}
	JOINT lThigh
	{
		OFFSET 5.308129 -1.633274 1.361059 
		CHANNELS 3 Xrotation Zrotation Yrotation
		JOINT lShin
		{
			OFFSET -2.041588 -20.007561 0.000000 
			CHANNELS 3 Xrotation Zrotation Yrotation
			JOINT lFoot
			{
				OFFSET 0.000000 -19.190928 -1.224953 
				CHANNELS 3 Xrotation Yrotation Zrotation
				End Site
				{
					OFFSET 0.000000 -2.449906 4.627600 
				}
			}
		}
	}
	JOINT rThigh
	{
		OFFSET -5.308129 -1.633274 1.361059 
		CHANNELS 3 Xrotation Zrotation Yrotation
		JOINT rShin
		{
			OFFSET 2.041588 -20.007561 0.000000 
			CHANNELS 3 Xrotation Zrotation Yrotation
			JOINT rFoot
			{
				OFFSET 0.000000 -19.190928 -1.224953 
				CHANNELS 3 Xrotation Yrotation Zrotation
				End Site
				{
					OFFSET 0.000000 -2.449906 4.627600 
				}
			}
		}
	}
}
MOTION
Frames: 20
Frame Time: 0.033333
-84.840332 47.347370 -39.026810 9.882813 -5.566407 4.090849 0.000000 0.000000 0.000000 3.496094 -0.175781 -0.029327 -9.160156 5.498047 12.100544 4.902344 -4.052734 14.813762 -2.861328 9.736329 0.478516 -76.669922 -8.564453 7.187500 -15.341797 -1.142578 2.490429 -5.800781 -7.363281 19.080780 2.851563 -9.941407 0.509498 77.402344 14.755858 14.465380 18.476563 0.898438 2.539063 8.486328 6.230469 20.010826 -38.563480 15.683069 6.145222 48.059559 -2.727771 -1.554448 -0.151184 0.453919 -4.007066 -18.636522 -2.147401 -6.233263 30.690823 3.251540 -2.713558 -22.051182 -2.867971 3.342639 
-85.099838 47.467304 -38.818035 9.355727 -6.084149 6.004690 0.000000 0.000000 0.000000 4.902344 0.000000 -0.175781 -8.984374 5.244141 11.612222 7.548829 -3.359375 13.739662 -2.910156 9.726562 0.634766 -77.851563 -7.011718 3.475372 -15.146484 -1.142578 2.480664 -5.126953 -6.953125 21.688272 2.871094 -9.931642 0.683594 76.621094 19.130859 15.628203 14.775392 0.966797 2.324054 10.751953 7.226563 27.559824 -43.024555 16.248804 7.026514 53.500381 -2.404470 -2.473511 -0.641295 1.049007 -2.044807 -17.342838 -1.435892 -5.869798 29.840086 2.898340 -2.842324 -21.832342 -3.126210 5.204660 
-85.477989 47.493225 -38.978233 9.355727 -6.425955 5.604254 0.000000 0.000000 0.000000 6.494141 -0.361328 -0.068359 -9.013672 4.853516 11.309420 8.945312 -3.876953 13.662109 -2.910156 9.560546 0.633144 -78.613281 -4.404297 -1.768328 -16.201172 -1.113281 2.490432 -4.443359 -6.562500 24.618027 2.871094 -10.107423 0.683594 78.564453 28.710939 12.299615 0.537109 1.201172 2.441406 11.259766 11.289063 39.533161 -48.331512 18.032455 8.489385 57.441891 -2.045488 -1.388349 0.119114 1.813716 -0.859634 -17.337568 -0.234096 -4.389478 28.838459 3.522991 -6.291146 -21.185701 -2.289018 4.080122 
-85.531212 47.547462 -38.826347 8.652345 -6.435547 5.311405 0.000000 0.000000 0.000000 8.242188 -1.396484 -0.049066 -8.808365 5.136587 12.149593 10.195313 -3.886719 14.266913 -2.929687 9.550781 0.799161 -79.130859 -2.675781 -6.142985 -13.564452 -1.162109 2.480667 -6.201172 -6.660277 27.723917 2.900391 -10.097655 0.869141 78.261719 34.873047 13.667693 -2.988281 1.259766 2.421660 12.841797 7.666016 44.054039 -51.009777 18.756504 10.261120 58.216347 -2.063584 1.207304 -0.776100 2.482604 -3.196990 -16.108976 0.127068 -4.449697 28.521538 2.997239 -5.398643 -21.348682 -2.138049 4.384762 
-85.347107 47.600193 -38.302334 9.023438 -6.787109 7.695313 0.000000 0.000000 0.000000 7.900391 -1.396484 -0.049066 -9.013672 4.804688 10.977382 9.658203 -4.580078 13.231817 -2.910156 9.560546 0.633144 -79.091797 0.322266 -6.484320 -12.705077 -1.171875 2.461137 -8.300781 -6.953125 29.989048 2.871094 -10.107423 0.683594 78.906250 36.650391 9.869113 -2.802734 1.074219 2.412109 12.089843 0.781250 56.279293 -53.849117 17.114878 9.104768 55.122559 -2.367260 2.818571 -1.514792 2.370143 -3.999505 -15.316483 -0.234356 -5.437896 27.835272 3.284379 -6.994707 -21.639971 -3.006639 5.652271 
-85.202255 47.625107 -37.757683 8.837891 -7.324219 9.373755 0.000000 0.000000 0.000000 8.251954 -1.582031 0.097387 -8.818359 4.882813 11.494972 9.492188 -5.458984 13.925781 -2.929687 9.550781 0.799161 -79.228516 2.402344 -8.769123 -9.697266 -1.220703 2.461146 -8.720703 -5.742188 33.535156 2.900391 -10.097655 0.869141 80.195313 40.410160 8.687973 -2.802734 1.074219 2.412109 11.601563 -3.642578 59.364616 -55.017746 16.454430 8.474759 49.715645 -2.529253 5.206937 -3.074565 2.571774 -3.715374 -13.739427 0.292826 -6.099786 26.293901 3.473773 -8.036911 -21.608931 -3.092040 6.838672 
-84.981155 47.493225 -37.064041 8.857423 -7.666016 10.213540 0.000000 0.000000 0.000000 8.085938 -2.109375 0.195313 -8.828124 4.853516 11.319186 9.658202 -6.865235 14.042970 -2.929687 9.550781 0.799161 -78.740234 5.244141 -11.943360 -5.478515 -1.298828 2.461159 -8.857422 -6.464844 38.465698 2.900391 -10.097655 0.869141 81.757813 40.117188 10.250435 -2.802734 1.074219 2.412109 13.593750 -1.455078 56.562500 -55.156738 16.289654 7.295742 43.214306 -2.834676 5.216761 -5.023170 1.893377 -3.986702 -12.429748 0.293067 -6.814325 25.715609 3.513645 -7.788071 -22.478792 -3.750100 6.581963 
-84.745697 47.352787 -36.223282 8.164063 -8.007812 10.242780 0.000000 0.000000 0.000000 8.789063 -2.783203 0.253432 -8.769531 5.634766 12.989238 9.306641 -6.875001 16.024221 -2.929687 9.550781 0.799161 -78.193359 7.187500 -16.170654 -1.787109 -1.376953 2.451182 -7.783203 -6.562500 43.123886 2.900391 -10.097655 0.869141 80.253906 39.384766 17.177732 -2.988281 1.259766 2.421660 17.841799 6.806641 48.467949 -53.305962 16.580215 6.101749 35.774456 -3.141402 6.003850 -7.125352 1.472467 -3.977144 -10.285843 0.829699 -7.055219 24.996675 3.468825 -7.470380 -23.024511 -3.359464 6.425189 
-84.435631 47.164398 -35.317207 8.173829 -8.896485 10.291458 0.000000 0.000000 0.000000 8.613282 -2.968750 0.233869 -8.769531 5.634766 12.989238 9.843751 -8.261718 16.268127 -2.929687 9.550781 0.799161 -78.437500 10.322265 -20.625000 1.025391 -1.425781 2.451415 -6.201172 -6.660277 46.893929 2.900391 -10.097655 0.869141 80.683594 39.453125 22.105816 5.625000 1.123047 2.294731 19.580080 7.939454 36.475960 -52.324772 17.681353 5.093346 29.080074 -3.370303 6.768373 -9.627410 0.827186 -1.751113 -9.012098 1.337456 -7.170379 24.820406 3.522942 -7.958831 -24.342331 -3.836443 7.947663 
-83.975792 46.969845 -34.288071 8.017579 -9.423829 10.066761 0.000000 0.000000 0.000000 8.437499 -3.330078 0.361328 -8.564453 6.132813 13.995183 11.103516 -8.964844 17.293402 -2.929687 9.550781 0.799161 -78.613281 12.587891 -24.890450 2.949219 -1.455078 2.460938 -4.277344 -6.396485 48.349613 2.900391 -10.097655 0.869141 80.683594 40.195313 26.201174 13.906251 0.976563 2.324052 19.033203 8.271485 29.220158 -50.311073 19.022892 4.032782 23.498793 -3.489809 5.919162 -12.462470 0.662705 -2.255491 -7.043960 1.873663 -5.938285 23.410995 3.638852 -8.584156 -24.573145 -3.096636 7.196128 
-83.451920 46.716522 -33.027752 7.470703 -9.785156 10.478516 0.000000 0.000000 0.000000 8.623047 -3.847656 0.263017 -8.564453 6.181641 14.346754 10.380859 -8.632813 17.596189 -2.929687 9.550781 0.799161 -78.759766 14.677735 -27.058071 2.773438 -1.455078 2.451420 -5.566406 -5.039062 50.536255 2.900391 -10.097655 0.869141 81.201172 40.400391 26.793438 21.093750 0.849609 2.402199 16.562502 7.470703 26.036427 -48.016239 20.057913 4.065562 20.102009 -3.515028 6.518923 -11.997066 0.183088 -4.019306 -5.073483 1.668950 -6.147043 23.797398 3.718921 -9.387843 -26.483587 -3.810934 10.617971 
-82.810242 46.220699 -31.783035 7.480469 -10.117187 10.076410 0.000000 0.000000 0.000000 8.281250 -4.375000 0.389880 -8.544922 6.259767 14.854579 10.546875 -9.160156 18.416412 -2.910156 9.355727 0.779684 -79.267578 16.562502 -29.010887 2.773438 -1.455078 2.451420 -5.371093 -2.236328 53.700790 2.900391 -10.263672 0.869141 82.666016 41.357426 27.125595 25.664064 0.937500 2.548668 12.226563 5.888672 22.911160 -47.300671 20.857204 4.622503 20.687939 -3.368251 11.021569 -13.282188 0.542118 -3.477647 -3.691128 1.337796 -6.180696 25.211174 3.503374 -7.759152 -29.000710 -4.105731 12.532784 
-81.972504 45.723240 -30.411474 7.324219 -10.996094 11.052823 0.000000 0.000000 0.000000 7.929688 -4.375000 0.428943 -8.515625 6.503907 15.372201 10.742188 -8.095703 18.611906 -2.890625 9.365234 0.603880 -79.482422 17.607424 -28.375950 2.773438 -1.455078 2.451420 -8.007812 -2.177734 53.691036 2.871094 -10.283203 0.703125 82.832031 41.865234 25.367846 27.441406 0.898438 2.538909 12.197267 6.416016 22.911247 -46.368824 21.011021 5.189669 22.874828 -3.592999 8.914807 -11.542514 0.589510 -2.670654 -1.195819 0.819974 -8.665403 24.526060 3.503188 -4.324170 -30.658823 -4.677444 13.397108 
-80.911392 45.179478 -28.948671 7.148438 -11.015625 11.433681 0.000000 0.000000 0.000000 7.929688 -4.375000 0.428943 -8.750000 5.947266 14.024448 9.316406 -10.039063 17.734377 -2.890625 9.365234 0.603880 -79.785156 17.265625 -27.604525 2.773438 -1.455078 2.451420 -9.990234 -1.220703 52.949009 2.871094 -10.283203 0.703125 81.630859 41.640629 25.341795 30.764275 0.849673 2.577825 8.886719 5.556641 17.754852 -46.049866 20.290457 5.660762 24.613838 -3.353590 10.959049 -2.769480 0.085077 0.761975 1.107619 0.198239 -8.739415 24.803347 3.055266 -4.200564 -31.695232 -5.374413 13.939074 
-79.687202 44.853920 -27.397158 6.992188 -11.367187 12.820340 0.000000 0.000000 0.000000 7.734374 -4.208984 0.292969 -8.720703 5.996094 14.355470 10.214844 -10.390625 17.908396 -2.890625 9.365234 0.603880 -80.644531 17.060547 -26.393618 2.773438 -1.455078 2.451420 -10.654298 -1.972656 52.119133 2.871094 -10.283203 0.703125 82.998047 40.976566 22.145077 28.837893 0.888672 2.548677 7.314454 4.931641 20.440292 -47.349903 19.900417 5.958460 29.417627 -3.378992 7.101306 2.681744 0.538981 1.070056 3.151284 -0.867889 -8.917102 25.333363 3.205306 -4.833386 -28.532503 -4.823387 13.911404 
-78.518364 44.634705 -25.831667 7.001954 -11.894531 14.871035 0.000000 0.000000 0.000000 7.753907 -4.531250 0.399619 -8.750000 5.732422 13.702147 9.677735 -10.214845 17.478737 -2.890625 9.365234 0.603880 -80.126953 13.906251 -27.019138 2.773438 -1.455078 2.451420 -11.679688 -3.066406 50.800777 2.871094 -10.283203 0.703125 84.736328 38.193359 17.808771 27.783205 0.898438 2.538909 5.566407 4.853516 21.739109 -49.461143 19.227819 6.325099 35.958199 -3.024060 5.472185 -1.081809 1.050294 1.279617 4.557278 -0.546312 -7.736408 26.461061 3.050129 -6.014964 -24.628689 -5.695247 16.178289 
-77.064743 44.487213 -24.015127 6.093750 -11.738280 16.835938 0.000000 0.000000 0.000000 8.818359 -5.058594 0.410156 -8.564453 5.947266 14.024447 10.039063 -11.425781 18.093769 -2.910156 9.355727 0.779684 -79.609375 10.039063 -28.201420 2.246094 -1.455078 2.451420 -10.400392 -4.052734 49.296875 2.900391 -10.263672 0.869141 84.091797 33.242188 18.212891 29.531248 0.869141 2.558594 1.699219 4.472657 20.440218 -48.878746 18.052435 6.870403 40.874489 -2.863360 4.133054 -3.259788 1.140169 1.757900 6.172719 -1.774734 -8.158576 29.146481 2.815324 -5.876480 -18.255718 -4.911494 19.999411 
-75.477104 44.378487 -22.097654 4.638672 -11.396484 18.376980 0.000000 0.000000 0.000000 9.707032 -5.380859 0.448303 -8.593750 5.703268 13.526015 10.957032 -14.062500 17.624580 -2.910156 9.355727 0.779684 -79.404297 5.654297 -29.901381 1.904297 -1.455078 2.451420 -9.472656 -4.892578 46.229633 2.900391 -10.263672 0.869141 83.857422 28.652344 20.356245 29.355471 0.869141 2.558445 0.791016 4.921864 17.744940 -47.036415 17.478148 8.317311 45.857708 -2.890079 1.313063 -7.946735 1.194554 2.620540 6.345891 -3.680726 -7.822114 34.890865 2.703246 -7.803265 -8.156791 -1.920928 23.245197 
-74.025772 44.412586 -20.316475 3.759766 -11.601563 20.115221 0.000000 0.000000 0.000000 9.707031 -5.205078 0.477630 -8.593750 5.507950 13.369735 12.031251 -12.998048 17.243896 -2.910156 9.355727 0.779684 -78.457031 1.132813 -28.798632 1.025391 -1.425781 2.451415 -5.859375 -6.474609 44.588741 2.900391 -10.263672 0.869141 85.039063 23.281252 22.210890 28.496094 0.898438 2.548675 1.367188 4.101563 17.071009 -45.220367 17.097345 8.748968 49.174084 -2.754807 -0.049693 -12.617448 1.259973 2.965960 5.969378 -4.701427 -7.435188 39.621994 2.412141 -10.881573 2.641810 3.460656 20.504303 
-72.700882 44.587765 -18.571154 3.398438 -12.119141 21.035158 0.000000 0.000000 0.000000 8.466797 -5.224609 0.419922 -8.583985 5.712891 13.701172 11.835938 -11.777345 17.380819 -2.910156 9.355727 0.779684 -77.539063 -2.861328 -25.967281 0.136719 -1.396484 2.451182 -4.042969 -7.421875 44.451870 2.900391 -10.263672 0.869141 85.078125 18.721710 25.529324 26.386721 0.917969 2.529140 6.025391 5.937500 24.414064 -43.034554 17.313032 10.992377 51.205536 -2.560261 -2.727443 -16.429180 1.275827 4.263835 -2.116508 -3.325250 -3.676089 52.876526 1.629271 -16.602106 11.367427 2.789330 18.632202 
